<svg xmlns="http://www.w3.org/2000/svg" viewBox="106.04499359130858 158.9674966430664 362.9099884033203 257.06500022888184"> <svg xmlns="http://www.w3.org/2000/svg" xmlns:xlink="http://www.w3.org/1999/xlink" version="1.1" id="Layer_1" x="224.99998474121094" y="228.9674966430664" viewBox="180.2999725341797 57.20000457763672 432.4000244140625 216.59994506835938" xml:space="preserve" height="62.615396353093765" width="125" preserveAspectRatio="xMinYMin" enable-background="new 0 0 792 330" style="overflow: visible;"><linearGradient id="SVGID_1_" gradientUnits="userSpaceOnUse" x1="538.4" y1="214.595" x2="325.639" y2="214.595" style=""><stop offset="0" style="stop-color: #B521BA;"></stop><stop offset="0.5" style="stop-color: #00ABFF;"></stop><stop offset="1" style="stop-color: #290075;"></stop></linearGradient><path class="st0" d="M412.4,230c-2.3-21.9-6.9-42.3-20.8-42.3h-56c-14.1,0-1.5-30.8-13-30.8c-12.8,0-36.7,30.8-63.4,30.8  c-11.2,0-5.4-18.4-10.4-18.4c-5.5,0-18.2,18.4-30.8,18.4h-36.9c-0.4,0-0.8-0.3-0.8-0.8c0-0.4,0.3-0.8,0.8-0.8h36.9  c11.8,0,24.2-18.4,30.8-18.4c7.7,0,0.6,18.4,10.4,18.4c26,0,49.8-30.7,63.4-30.7c13.4,0,0.8,30.7,13,30.7h56  c15.6,0,20.1,22.6,22.3,43.7c2,18.9,2.4,42.4,7.2,42.4c5.6,0,10.2-20.3,16.4-42.5c6-21.2,13.7-43.6,26.8-43.6h24.3  c6.9,0,12.7,13.1,17.6,25c6,14.4,10,24.1,13.3,24.2c3.7,0,5.3-10.9,7.9-23.9c2.4-12,5.8-25.3,14.8-25.3h69.6c0.4,0,0.8,0.4,0.8,0.8  c0,0.4-0.3,0.8-0.8,0.8h-69.6c-7.5,0-10.8,11.4-13.3,24c-1.8,8.8-3.5,25.2-9.4,25.2c-5-0.1-9.8-13.3-14.7-25.1  c-5.2-12.6-10.6-24.1-16.2-24.1h-24.3c-11.7,0-19.1,20.6-25.3,42.5c-3,10.7-5.7,21.5-8.5,29.6c-2.6,7.8-5.5,14-9.5,14  C414.8,273.8,415.2,256.6,412.4,230z" style="fill-rule: evenodd; clip-rule: evenodd; fill: #ff9900; fill-opacity: 0.75;"></path><linearGradient id="SVGID_2_" gradientUnits="userSpaceOnUse" x1="538.4" y1="212.08" x2="325.639" y2="212.08" style=""><stop offset="0" style="stop-color: #B521BA;"></stop><stop offset="0.5" style="stop-color: #00ABFF;"></stop><stop offset="1" style="stop-color: #290075;"></stop></linearGradient><path class="st1" d="M409.9,226.1c-2.8-19.9-7.6-38.5-20.9-38.5h-54c-13.5,0-2.8-27.9-13.8-27.9c-12.9,0-36,27.9-61.6,27.9  c-10.8,0-5.9-16.8-11.2-16.8c-5.9,0-18.4,16.8-30.7,16.8h-36.4c-0.4,0-0.8-0.3-0.8-0.8c0-0.4,0.3-0.8,0.8-0.8h36.4  c11.6,0,23.9-16.8,30.7-16.8c7.6,0,1.7,16.8,11.2,16.8c25,0,47.9-27.9,61.6-27.9c12.9,0,2.1,27.9,13.8,27.9h54  c14.9,0,19.7,20.6,22.4,39.8c1.4,9.9,2.3,19.5,3.6,26.9c1.3,7.7,3,11.6,5.2,11.6c5.9,0,10.9-18.4,17.5-38.6  c6.3-19.3,14.3-39.7,27.2-39.7h23.5c6.7,0,12.4,11.9,17.4,22.8c5.8,12.7,9.8,21.9,13.6,22c3.9,0,5.8-9.9,8.8-21.7  c2.7-10.9,6.5-23,15.4-23h68.1c0.4,0,0.8,0.4,0.8,0.8c0,0.4-0.3,0.8-0.8,0.8h-68.1c-7.4,0-11,10.3-13.9,21.8  c-2.2,8.6-4.4,23-10.3,22.9c-5.2-0.1-10.1-12.1-15-22.8c-5.3-11.5-10.6-21.9-16-21.9h-23.5c-11.5,0-19.2,18.7-25.8,38.6  c-5.1,15.5-11,39.7-19,39.6C413.8,265.9,413.5,251.6,409.9,226.1z" style="fill-rule: evenodd; clip-rule: evenodd; fill: #ff9900; fill-opacity: 0.75;"></path><linearGradient id="SVGID_3_" gradientUnits="userSpaceOnUse" x1="538.4" y1="209.565" x2="325.639" y2="209.565" style=""><stop offset="0" style="stop-color: #B521BA;"></stop><stop offset="0.5" style="stop-color: #00ABFF;"></stop><stop offset="1" style="stop-color: #290075;"></stop></linearGradient><path class="st2" d="M411.8,246.5c-1.6-6.6-2.8-15.5-4.5-24.3c-3.4-17.9-8.4-34.6-21-34.6h-52c-13,0-4-25.2-14.7-25.2  c-13.1,0-35.3,25.2-59.8,25.2c-10.4,0-6.6-15.1-12-15.1c-6.3,0-18.6,15.1-30.7,15.1h-35.9c-0.4,0-0.8-0.3-0.8-0.8  c0-0.4,0.3-0.8,0.8-0.8h35.9c11.4,0,23.5-15.1,30.7-15.1c7.5,0,2.8,15.1,12,15.1c23.9,0,46-25.1,59.8-25.1  c12.4,0,3.4,25.1,14.7,25.1h52c14.1,0,19.3,18.5,22.5,35.8c1.7,8.9,2.9,17.6,4.4,24.2c1.7,6.9,3.5,10.4,5.9,10.4  c6.2,0,11.6-16.6,18.6-34.7c6.7-17.4,14.9-35.7,27.6-35.7h22.8c6.5,0,12.2,10.8,17.2,20.5c5.7,11.1,9.9,19.7,14,19.8  c4.1,0,6.4-8.9,9.7-19.6c3.1-9.8,7.2-20.7,16-20.7h66.7c0.4,0,0.8,0.4,0.8,0.8c0,0.4-0.3,0.8-0.8,0.8h-66.7  c-7.4,0-11.2,9.3-14.5,19.6c-2.6,8.1-5.3,20.7-11.2,20.6c-5.3-0.1-10.4-10.9-15.3-20.6c-5.3-10.3-10.5-19.7-15.9-19.7h-22.8  c-11.4,0-19.3,16.9-26.2,34.8c-5.7,14.8-11.9,35.7-20,35.7C415.4,258.1,413.4,252.9,411.8,246.5z" style="fill-rule: evenodd; clip-rule: evenodd; fill: #ff9900; fill-opacity: 0.75;"></path><linearGradient id="SVGID_4_" gradientUnits="userSpaceOnUse" x1="538.4" y1="207.05" x2="325.639" y2="207.05" style=""><stop offset="0" style="stop-color: #B521BA;"></stop><stop offset="0.5" style="stop-color: #00ABFF;"></stop><stop offset="1" style="stop-color: #290075;"></stop></linearGradient><path class="st3" d="M410.2,240c-1.9-5.9-3.5-13.8-5.4-21.6c-3.9-15.9-9.2-30.7-21.1-30.7h-50c-12.4,0-5.3-22.4-15.6-22.4  c-13.2,0-34.6,22.4-58,22.4c-10,0-7.3-13.4-12.9-13.4c-6.7,0-18.7,13.4-30.6,13.4h-35.4c-0.4,0-0.8-0.3-0.8-0.8  c0-0.4,0.3-0.8,0.8-0.8h35.4c11.3,0,23.1-13.4,30.6-13.4c7.1,0,4,13.4,12.9,13.4c22.9,0,44.1-22.4,58-22.4c12,0,4.8,22.4,15.6,22.4  h50c13.4,0,18.9,16.5,22.6,31.9c1.9,7.9,3.5,15.6,5.3,21.5c1.9,6,4,9.3,6.6,9.3c6.5,0,12.3-14.7,19.6-30.8c7-15.4,15.5-31.8,28-31.8  H488c6.3,0,12,9.6,17,18.3c5.6,9.7,10.1,17.5,14.3,17.5c4.3,0,6.9-8,10.7-17.4c3.5-8.8,8-18.4,16.5-18.4h65.2c0.4,0,0.8,0.4,0.8,0.8  c0,0.4-0.3,0.8-0.8,0.8h-65.2c-7.3,0-11.4,8.3-15.1,17.4c-3,7.6-6.2,18.4-12.1,18.3c-5.4,0-10.6-9.7-15.6-18.3  c-5.3-9.2-10.5-17.5-15.7-17.5h-22.1c-11.3,0-19.4,15-26.6,30.9c-6.3,13.8-12.9,31.8-21,31.8C414.4,250.3,412,245.7,410.2,240z" style="fill-rule: evenodd; clip-rule: evenodd; fill: #ff9900; fill-opacity: 0.75;"></path><linearGradient id="SVGID_5_" gradientUnits="userSpaceOnUse" x1="538.4" y1="204.535" x2="325.639" y2="204.535" style=""><stop offset="0" style="stop-color: #B521BA;"></stop><stop offset="0.5" style="stop-color: #00ABFF;"></stop><stop offset="1" style="stop-color: #290075;"></stop></linearGradient><path class="st4" d="M408.6,233.4c-2.2-5.2-4.1-12.1-6.3-18.9c-4.4-13.9-10-26.8-21.3-26.8h-48c-11.8,0-6.5-19.6-16.5-19.6  c-13.4,0-33.9,19.6-56.2,19.6c-9.5,0-8-11.7-13.7-11.7c-7.1,0-18.9,11.7-30.6,11.7h-34.9c-0.4,0-0.8-0.3-0.8-0.8  c0-0.4,0.3-0.8,0.8-0.8h34.9c11.1,0,22.7-11.7,30.6-11.7c7.1,0,5.1,11.7,13.7,11.7c21.8,0,42.2-19.6,56.2-19.6  c11.4,0,6,19.6,16.5,19.6h48c12.6,0,18.4,14.4,22.7,27.9c2.2,6.9,4,13.7,6.2,18.8c2.2,5.2,4.5,8.1,7.4,8.1c6.8,0,13-12.9,20.7-27  c7.4-13.5,16.1-27.8,28.4-27.8h21.4c6.1,0,11.7,8.4,16.8,16c5.4,8.1,10.2,15.3,14.7,15.3c9.5,0.1,12.5-31.3,28.7-31.3h63.8  c0.4,0,0.8,0.4,0.8,0.8c0,0.4-0.3,0.8-0.8,0.8H548c-15,0-17.8,31.4-28.7,31.3c-5.5,0-10.9-8.4-15.9-16c-5.4-8-10.5-15.3-15.5-15.3  h-21.4c-11.2,0-19.5,13.1-27,27c-6.8,12.4-13.8,27.8-22,27.8C413.4,242.5,410.8,238.5,408.6,233.4z" style="fill-rule: evenodd; clip-rule: evenodd; fill: #ff9900; fill-opacity: 0.75;"></path><linearGradient id="SVGID_6_" gradientUnits="userSpaceOnUse" x1="538.4" y1="202.015" x2="325.639" y2="202.015" style=""><stop offset="0" style="stop-color: #B521BA;"></stop><stop offset="0.5" style="stop-color: #00ABFF;"></stop><stop offset="1" style="stop-color: #290075;"></stop></linearGradient><path class="st5" d="M399.9,210.7c-5-11.9-10.7-23-21.4-23h-46.1c-11.2,0-7.8-16.8-17.4-16.8c-13.5,0-33.2,16.8-54.4,16.8  c-9.1,0-8.7-10.1-14.5-10.1c-7.6,0-19.1,10.1-30.5,10.1h-34.3c-0.4,0-0.8-0.3-0.8-0.8c0-0.4,0.3-0.8,0.8-0.8h34.3  c10.9,0,22.4-10.1,30.5-10.1c7,0,6.2,10.1,14.5,10.1c20.8,0,40.4-16.8,54.4-16.8c10.9,0,7.4,16.8,17.4,16.8h46.1  c11.9,0,18,12.4,22.8,24c5.5,13.3,9,23,15.2,23c7.1,0,13.7-11.1,21.8-23.1c7.8-11.6,16.8-23.8,28.8-23.8h20.6  c11.3,0,21.8,26.8,31.6,26.8c9.9,0.1,14.2-26.8,30.2-26.8h62.3c0.4,0,0.8,0.4,0.8,0.8c0,0.4-0.3,0.8-0.8,0.8h-62.3  c-14.8,0-19.1,26.9-30.2,26.8c-10.9-0.1-21.3-26.8-31.6-26.8H467c-11.1,0-19.6,11.3-27.5,23.1c-7.3,10.9-14.8,23.8-23,23.8  C408.6,234.6,404.6,222,399.9,210.7z" style="fill-rule: evenodd; clip-rule: evenodd; fill: #ff9900; fill-opacity: 0.75;"></path><linearGradient id="SVGID_7_" gradientUnits="userSpaceOnUse" x1="538.4" y1="199.505" x2="325.639" y2="199.505" style=""><stop offset="0" style="stop-color: #B521BA;"></stop><stop offset="0.5" style="stop-color: #00ABFF;"></stop><stop offset="1" style="stop-color: #290075;"></stop></linearGradient><path class="st6" d="M375.8,187.7h-44.1c-10.6,0-9-14-18.2-14c-13.7,0-32.5,14-52.6,14c-8.7,0-9.4-8.4-15.3-8.4  c-8,0-19.2,8.4-30.5,8.4h-33.8c-0.4,0-0.8-0.3-0.8-0.8c0-0.4,0.3-0.8,0.8-0.8h33.8c10.8,0,22-8.4,30.5-8.4c6.9,0,7.3,8.4,15.3,8.4  c19.7,0,38.5-14,52.6-14c10.3,0,8.6,14,18.2,14h44.1c21.6,0,25.8,39.1,39.7,39.1c15.4,0,28.8-39.1,52-39.1h19.9  c10.9,0,21.5,22.3,31.7,22.4c10.2,0.1,16-22.4,31.7-22.4h60.8c0.4,0,0.8,0.4,0.8,0.8c0,0.4-0.3,0.8-0.8,0.8h-60.8  c-14.7,0-20.5,22.4-31.7,22.4c-11.2-0.1-21.7-22.4-31.7-22.4h-19.9c-22.3,0-35.5,39.2-52,39.1C399.9,226.8,396.5,187.7,375.8,187.7z  " style="fill-rule: evenodd; clip-rule: evenodd; fill: #ff9900; fill-opacity: 0.75;"></path><linearGradient id="SVGID_8_" gradientUnits="userSpaceOnUse" x1="538.4" y1="196.985" x2="325.639" y2="196.985" style=""><stop offset="0" style="stop-color: #B521BA;"></stop><stop offset="0.5" style="stop-color: #00ABFF;"></stop><stop offset="1" style="stop-color: #290075;"></stop></linearGradient><path class="st7" d="M373.1,187.7H331c-10,0-10.3-11.2-19.1-11.2c-13.9,0-31.8,11.2-50.9,11.2c-8.2,0-10.1-6.7-16.1-6.7  c-8.4,0-19.4,6.7-30.4,6.7h-33.3c-0.4,0-0.8-0.3-0.8-0.8c0-0.4,0.3-0.8,0.8-0.8h33.3c10.6,0,21.6-6.7,30.4-6.7  c6.8,0,8.4,6.7,16.1,6.7c18.7,0,36.6-11.2,50.9-11.2c9.7,0,10,11.2,19.1,11.2h42.1c20.2,0,26.7,31.3,41.4,31.3  c16,0,30.6-31.3,53.5-31.3h19.2c10.5,0,21.3,17.9,31.9,17.9c10.6,0,17.9-17.9,33.2-17.9h59.4c0.4,0,0.8,0.4,0.8,0.8  c0,0.4-0.3,0.8-0.8,0.8h-59.4c-14.5,0-22,17.9-33.3,17.9c-11.5,0-22.1-17.9-31.9-17.9H468c-22,0-36.6,31.3-53.5,31.3  C398.5,219,392.6,187.7,373.1,187.7z" style="fill-rule: evenodd; clip-rule: evenodd; fill: #ff9900; fill-opacity: 0.75;"></path><linearGradient id="SVGID_9_" gradientUnits="userSpaceOnUse" x1="538.4" y1="194.47" x2="325.639" y2="194.47" style=""><stop offset="0" style="stop-color: #B521BA;"></stop><stop offset="0.5" style="stop-color: #00ABFF;"></stop><stop offset="1" style="stop-color: #290075;"></stop></linearGradient><path class="st8" d="M370.5,187.7h-40.1c-9.4,0-11.5-8.4-20-8.4c-14,0-31.1,8.4-49.1,8.4c-7.8,0-10.8-5-16.9-5c-8.8,0-19.6,5-30.4,5  h-32.8c-0.4,0-0.8-0.3-0.8-0.8c0-0.4,0.3-0.8,0.8-0.8h32.8c10.5,0,21.3-5,30.4-5c6.7,0,9.6,5,16.9,5c17.6,0,34.7-8.4,49.1-8.4  c9.2,0,11.3,8.4,20,8.4h40.1c18.7,0,27.6,23.5,43.1,23.5c16.6,0,32.5-23.5,54.9-23.5H487c10.1,0,21,13.4,32,13.4  c10.9,0,19.7-13.4,34.8-13.4h57.9c0.4,0,0.8,0.4,0.8,0.8c0,0.4-0.3,0.8-0.8,0.8h-57.9c-14.4,0-23.3,13.4-34.8,13.4  c-11.8,0-22.4-13.4-32-13.4h-18.5c-21.7,0-37.7,23.5-54.9,23.5C397.2,211.2,388.6,187.7,370.5,187.7z" style="fill-rule: evenodd; clip-rule: evenodd; fill: #ff9900; fill-opacity: 0.75;"></path><linearGradient id="SVGID_10_" gradientUnits="userSpaceOnUse" x1="538.4" y1="191.96" x2="325.639" y2="191.96" style=""><stop offset="0" style="stop-color: #B521BA;"></stop><stop offset="0.5" style="stop-color: #00ABFF;"></stop><stop offset="1" style="stop-color: #290075;"></stop></linearGradient><path class="st9" d="M367.9,187.7h-38.1c-8.8,0-12.6-5.6-20.9-5.6c-14.2,0-30.5,5.6-47.3,5.6c-7.3,0-11.5-3.4-17.7-3.4  c-9.2,0-19.8,3.4-30.3,3.4h-32.3c-0.4,0-0.8-0.3-0.8-0.8c0-0.4,0.3-0.8,0.8-0.8h32.3c10.4,0,20.9-3.3,30.3-3.3  c6.6,0,10.7,3.3,17.7,3.3c16.6,0,32.9-5.6,47.3-5.6c8.6,0,12.5,5.6,20.9,5.6h38.1c17.3,0,28.6,15.7,44.9,15.7  c17.2,0,34.4-15.7,56.4-15.7h17.8c9.7,0,20.6,8.9,32.1,9c11.3,0,21.5-9,36.3-9h56.5c0.4,0,0.8,0.4,0.8,0.8c0,0.4-0.3,0.8-0.8,0.8  h-56.5c-14.3,0-24.7,9-36.3,8.9c-12,0-22.8-8.9-32.1-8.9h-17.8c-21.5,0-38.8,15.7-56.4,15.7C395.8,203.3,384.7,187.7,367.9,187.7z" style="fill-rule: evenodd; clip-rule: evenodd; fill: #ff9900; fill-opacity: 0.75;"></path><linearGradient id="SVGID_11_" gradientUnits="userSpaceOnUse" x1="538.4" y1="189.44" x2="325.639" y2="189.44" style=""><stop offset="0" style="stop-color: #B521BA;"></stop><stop offset="0.5" style="stop-color: #00ABFF;"></stop><stop offset="1" style="stop-color: #290075;"></stop></linearGradient><path class="st10" d="M365.2,187.7H329c-8.1,0-13.8-2.8-21.7-2.8c-14.4,0-29.8,2.8-45.5,2.8c-6.9,0-12.2-1.7-18.6-1.7  c-9.7,0-20,1.7-30.3,1.7h-31.8c-0.4,0-0.8-0.3-0.8-0.8c0-0.4,0.3-0.8,0.8-0.8H213c10.2,0,20.5-1.7,30.3-1.7c6.5,0,11.8,1.7,18.6,1.7  c15.6,0,31-2.8,45.5-2.8c8.1,0,13.8,2.8,21.7,2.8h36.2c15.8,0,29.6,7.8,46.6,7.8c17.8,0,36.3-7.8,57.8-7.8h17  c9.3,0,20.3,4.5,32.3,4.5c11.6,0,23.4-4.5,37.8-4.5h55c0.4,0,0.8,0.4,0.8,0.8c0,0.4-0.3,0.8-0.8,0.8h-55c-14.2,0-26,4.5-37.8,4.5  c-12.3,0-23.2-4.5-32.3-4.5h-17c-21.2,0-39.9,7.8-57.8,7.8C394.5,195.5,380.8,187.7,365.2,187.7z" style="fill-rule: evenodd; clip-rule: evenodd; fill: #ff9900; fill-opacity: 0.75;"></path><linearGradient id="SVGID_12_" gradientUnits="userSpaceOnUse" x1="538.4" y1="122.56" x2="325.639" y2="122.56" style=""><stop offset="0" style="stop-color: #B521BA;"></stop><stop offset="0.5" style="stop-color: #00ABFF;"></stop><stop offset="1" style="stop-color: #290075;"></stop></linearGradient><path class="st11" d="M180.5,187.1c0-0.4,0.3-0.8,0.8-0.8h114.5c31.3,0,50.2-31.7,63.6-64.1c13.6-32.8,21-65,31-65  c3.9,0,5.8,9.3,7.3,20.8c1.5,12.1,2.7,28.3,4.1,44.4c3.1,33.3,7.5,63.9,18.5,63.9h31.5c8.4,0,13.9-18.9,18.3-39.4  c5.9-27.5,7.8-40.6,12.5-40.6c6.5,0,6.3,14,8.9,40.7c2,20.3,6.1,39.3,19.3,39.3h100.9c0.4,0,0.8,0.4,0.8,0.8c0,0.4-0.3,0.8-0.8,0.8  H510.8c-15,0-18.9-21-20.8-40.7c-1-10.1-1.5-20-2.5-27.5c-1.1-7.9-2.6-11.8-4.9-11.8c-1.4,0-3.2,4-5.1,11.9  c-1.8,7.5-3.7,17.4-5.8,27.5c-4.2,19.5-9.8,40.6-19.8,40.6h-31.5c-12.9,0-17.1-33.6-20.1-65.3c-1.5-16.2-2.6-32.3-4.1-44.4  c-1.6-12.7-3.6-19.5-5.8-19.5c-8.4,0-15.9,31.1-29.6,64.1c-13.3,32.2-32.5,65-65,65H181.3C180.8,187.9,180.5,187.6,180.5,187.1z" style="fill-rule: evenodd; clip-rule: evenodd; fill: #ff9900; fill-opacity: 0.75;"></path><linearGradient id="SVGID_13_" gradientUnits="userSpaceOnUse" x1="538.4" y1="128.43" x2="325.639" y2="128.43" style=""><stop offset="0" style="stop-color: #B521BA;"></stop><stop offset="0.5" style="stop-color: #00ABFF;"></stop><stop offset="1" style="stop-color: #290075;"></stop></linearGradient><path class="st12" d="M180.5,187.1c0-0.4,0.3-0.8,0.8-0.8h111.5c29.9,0,48.5-28.8,62.1-58.3c13.9-29.9,22-59.2,32.6-59.2  c4.2,0,6.6,8.4,8.4,19c2,11,3.6,25.8,5.5,40.4c4,30.3,9.2,58,20.3,58H452c8.2,0,13.8-17.2,18.4-35.8c2.3-9.1,4.3-18.2,6.3-25  c1.9-6.5,4.1-11.9,7.1-11.9c6.4,0,6.8,11.4,10.5,37c2.6,18.5,7.1,35.7,19.9,35.7h97.5c0.4,0,0.8,0.4,0.8,0.8c0,0.4-0.3,0.8-0.8,0.8  h-97.5c-14.5,0-18.9-19.1-21.4-37c-1.3-9.1-2.1-18.1-3.4-24.9c-1.4-7.1-3.1-10.7-5.5-10.7c-1.6,0-3.5,3.6-5.7,10.8  c-2,6.8-4,15.8-6.3,24.9c-4.5,17.7-10.2,36.9-19.9,36.9h-30.3c-12.9,0-18-30.6-21.8-59.4c-2-14.7-3.6-29.3-5.5-40.3  c-2.1-11.5-4.4-17.7-6.9-17.7c-9.1,0-17.3,28.3-31.2,58.3c-13.6,29.3-32.5,59.1-63.5,59.1H181.3  C180.8,187.9,180.5,187.6,180.5,187.1z" style="fill-rule: evenodd; clip-rule: evenodd; fill: #ff9900; fill-opacity: 0.75;"></path><linearGradient id="SVGID_14_" gradientUnits="userSpaceOnUse" x1="538.4" y1="134.3" x2="325.639" y2="134.3" style=""><stop offset="0" style="stop-color: #B521BA;"></stop><stop offset="0.5" style="stop-color: #00ABFF;"></stop><stop offset="1" style="stop-color: #290075;"></stop></linearGradient><path class="st13" d="M180.5,187.1c0-0.4,0.3-0.8,0.8-0.8h108.4c28.5,0,46.8-25.9,60.6-52.4c14.2-27.2,23.1-53.3,34.2-53.3  c4.4,0,7.3,7.5,9.6,17.1c2.4,9.9,4.5,23.2,6.9,36.4c4.9,27.2,10.8,52.2,22.1,52.2h29.1c8,0,13.6-15.4,18.6-32.1  c3.8-12.7,8.3-33.3,14.5-33.3c4,0,6.1,4.9,7.6,10.8c1.6,6.2,2.8,14.4,4.4,22.5c3.3,16.6,8.1,32.1,20.5,32.1h94  c0.4,0,0.8,0.4,0.8,0.8c0,0.4-0.3,0.8-0.8,0.8h-94c-13.9,0-18.9-17.2-22-33.3c-1.6-8.2-2.8-16.3-4.4-22.4c-1.6-6.3-3.6-9.7-6.1-9.7  c-4.1,0-8,15.2-13,32.2c-4.7,16-10.6,33.3-20,33.3H423c-13,0-18.9-27.5-23.6-53.5c-2.4-13.2-4.5-26.4-6.9-36.3  c-2.5-10.3-5.2-15.9-8.1-15.9c-19.8,0-36.5,105.7-94.8,105.7H181.3C180.8,187.9,180.5,187.6,180.5,187.1z" style="fill-rule: evenodd; clip-rule: evenodd; fill: #ff9900; fill-opacity: 0.75;"></path><linearGradient id="SVGID_15_" gradientUnits="userSpaceOnUse" x1="538.4" y1="140.17" x2="325.639" y2="140.17" style=""><stop offset="0" style="stop-color: #B521BA;"></stop><stop offset="0.5" style="stop-color: #00ABFF;"></stop><stop offset="1" style="stop-color: #290075;"></stop></linearGradient><path class="st14" d="M180.5,187.1c0-0.4,0.3-0.8,0.8-0.8h105.3c27.1,0,45.1-23.1,59.2-46.6c14.7-24.5,24.2-47.3,35.7-47.3  c9.3,0,14.4,28.5,19,47.6c5.9,24.1,12.4,46.4,23.9,46.4h27.8c7.8,0,13.5-13.7,18.7-28.6c4.3-12.3,9.1-29.6,15.5-29.6  c4,0,6.4,4.3,8.2,9.6c1.9,5.5,3.5,12.8,5.4,20c3.9,14.7,9.1,28.5,21.2,28.5h90.5c0.4,0,0.8,0.4,0.8,0.8c0,0.4-0.3,0.8-0.8,0.8h-90.5  c-13.5,0-18.9-15.3-22.7-29.6c-1.9-7.3-3.4-14.5-5.3-19.9c-1.9-5.6-4-8.6-6.8-8.6c-4.5,0-8.8,13.5-14.1,28.6  c-5,14.2-11,29.6-20.2,29.6h-27.8c-13,0-19.8-24.5-25.3-47.5C392.7,114,388.3,94,381.5,94c-21.1,0-39.5,93.9-94.9,93.9H181.3  C180.8,187.9,180.5,187.6,180.5,187.1z" style="fill-rule: evenodd; clip-rule: evenodd; fill: #ff9900; fill-opacity: 0.75;"></path><linearGradient id="SVGID_16_" gradientUnits="userSpaceOnUse" x1="538.4" y1="146.04" x2="325.639" y2="146.04" style=""><stop offset="0" style="stop-color: #B521BA;"></stop><stop offset="0.5" style="stop-color: #00ABFF;"></stop><stop offset="1" style="stop-color: #290075;"></stop></linearGradient><path class="st15" d="M180.5,187.1c0-0.4,0.3-0.8,0.8-0.8h102.3c25.7,0,43.4-20.2,57.7-40.8c15.4-22.1,25.3-41.4,37.3-41.4  c9.7,0,15.9,23.8,21.6,41.6c6.7,20.9,14.1,40.6,25.6,40.6h26.6c7.6,0,13.4-12,18.9-25c4.8-11.3,10-25.9,16.5-25.9  c7.7,0,10.9,13.7,15.1,25.9c4.5,12.9,10.1,24.9,21.8,24.9h87c0.4,0,0.8,0.4,0.8,0.8c0,0.4-0.3,0.8-0.8,0.8h-87  c-12.9,0-18.9-13.4-23.3-25.9c-5.7-16.2-8.1-24.9-13.7-24.9c-4.9,0-9.5,11.8-15.1,25c-5.3,12.4-11.5,25.9-20.3,25.9h-26.6  c-13,0-20.6-21.4-27.1-41.6c-7.1-22.3-12.5-40.6-20.1-40.6c-22.4,0-42.5,82.2-95,82.2H181.3C180.8,187.9,180.5,187.6,180.5,187.1z" style="fill-rule: evenodd; clip-rule: evenodd; fill: #ff9900; fill-opacity: 0.75;"></path><linearGradient id="SVGID_17_" gradientUnits="userSpaceOnUse" x1="538.4" y1="151.91" x2="325.639" y2="151.91" style=""><stop offset="0" style="stop-color: #B521BA;"></stop><stop offset="0.5" style="stop-color: #00ABFF;"></stop><stop offset="1" style="stop-color: #290075;"></stop></linearGradient><path class="st16" d="M180.5,187.1c0-0.4,0.3-0.8,0.8-0.8h99.2c48.9,0,69.9-70.4,95.1-70.4c9.9,0,16.8,18.5,24.1,35.7  c7.6,17.9,15.7,34.8,27.4,34.8h25.3c7.4,0,13.3-10.3,19.1-21.4c5.2-10,10.9-22.2,17.5-22.2c15.2,0,15.8,43.6,39.1,43.6h83.6  c0.4,0,0.8,0.4,0.8,0.8c0,0.4-0.3,0.8-0.8,0.8h-83.6c-24.2,0-25.8-43.6-39.1-43.6c-5.4,0-10.3,10.1-16.1,21.4  c-5.5,10.7-11.9,22.2-20.5,22.2h-25.3c-13,0-21.4-18.3-28.8-35.7c-7.9-18.7-14.1-34.8-22.7-34.8c-23.8,0-45.5,70.4-95.1,70.4h-99.2  C180.8,187.9,180.5,187.6,180.5,187.1z" style="fill-rule: evenodd; clip-rule: evenodd; fill: #ff9900; fill-opacity: 0.75;"></path><linearGradient id="SVGID_18_" gradientUnits="userSpaceOnUse" x1="538.4" y1="157.78" x2="325.639" y2="157.78" style=""><stop offset="0" style="stop-color: #B521BA;"></stop><stop offset="0.5" style="stop-color: #00ABFF;"></stop><stop offset="1" style="stop-color: #290075;"></stop></linearGradient><path class="st17" d="M180.5,187.1c0-0.4,0.3-0.8,0.8-0.8h96.2c46,0,68.9-58.7,95.2-58.7c10.4,0,18.4,15.3,26.6,29.7  c8.5,14.9,17.3,29,29.2,29h24.1c7.2,0,13.3-8.6,19.3-17.8c5.8-8.8,11.6-18.5,18.5-18.5c15.2,0,18.8,36.3,41.3,36.3h80.1  c0.4,0,0.8,0.4,0.8,0.8c0,0.4-0.3,0.8-0.8,0.8h-80.1c-23.3,0-27.4-36.3-41.3-36.3c-5.8,0-11.1,8.5-17.2,17.8  c-5.8,8.9-12.3,18.5-20.6,18.5h-24.1c-13,0-22.3-15.2-30.5-29.7c-8.6-15-16-29-25.3-29c-25.1,0-48.6,58.7-95.2,58.7h-96.2  C180.8,187.9,180.5,187.6,180.5,187.1z" style="fill-rule: evenodd; clip-rule: evenodd; fill: #ff9900; fill-opacity: 0.75;"></path><linearGradient id="SVGID_19_" gradientUnits="userSpaceOnUse" x1="538.4" y1="163.65" x2="325.639" y2="163.65" style=""><stop offset="0" style="stop-color: #B521BA;"></stop><stop offset="0.5" style="stop-color: #00ABFF;"></stop><stop offset="1" style="stop-color: #290075;"></stop></linearGradient><path class="st18" d="M180.5,187.1c0-0.4,0.3-0.8,0.8-0.8h93.1c43.2,0,68-47,95.3-47c21.5,0,35.5,47,60.1,47h22.8  c14.5,0,25.1-29.1,39-29.1c15.5,0,21.9,29.1,43.5,29.1h76.6c0.4,0,0.8,0.4,0.8,0.8c0,0.4-0.3,0.8-0.8,0.8h-76.6  c-22.3,0-29.1-29.1-43.5-29.1c-12.8,0-23.6,29.1-39,29.1h-22.8c-25.6,0-39.8-47-60.1-47c-26.5,0-51.6,47-95.3,47h-93.1  C180.8,187.9,180.5,187.6,180.5,187.1z" style="fill-rule: evenodd; clip-rule: evenodd; fill: #ff9900; fill-opacity: 0.75;"></path><linearGradient id="SVGID_20_" gradientUnits="userSpaceOnUse" x1="538.4" y1="169.52" x2="325.639" y2="169.52" style=""><stop offset="0" style="stop-color: #B521BA;"></stop><stop offset="0.5" style="stop-color: #00ABFF;"></stop><stop offset="1" style="stop-color: #290075;"></stop></linearGradient><path class="st19" d="M180.5,187.1c0-0.4,0.3-0.8,0.8-0.8h90c40.4,0,67-35.2,95.5-35.2c22.6,0,39.5,35.2,64.5,35.2h21.6  c14,0,25.8-21.8,40.1-21.8c15.7,0,24.9,21.8,45.6,21.8h73.2c0.4,0,0.8,0.4,0.8,0.8c0,0.4-0.3,0.8-0.8,0.8h-73.2  c-21.3,0-30.7-21.8-45.6-21.8c-13.5,0-25.3,21.8-40.1,21.8h-21.6c-25.7,0-42.7-35.2-64.5-35.2c-27.8,0-54.7,35.2-95.5,35.2h-90  C180.8,187.9,180.5,187.6,180.5,187.1z" style="fill-rule: evenodd; clip-rule: evenodd; fill: #ff9900; fill-opacity: 0.75;"></path><linearGradient id="SVGID_21_" gradientUnits="userSpaceOnUse" x1="538.4" y1="175.39" x2="325.639" y2="175.39" style=""><stop offset="0" style="stop-color: #B521BA;"></stop><stop offset="0.5" style="stop-color: #00ABFF;"></stop><stop offset="1" style="stop-color: #290075;"></stop></linearGradient><path class="st20" d="M180.5,187.1c0-0.4,0.3-0.8,0.8-0.8h87c37.5,0,65.9-23.5,95.6-23.5c23.6,0,43.5,23.5,68.8,23.5h20.4  c13.6,0,26.5-14.5,41.3-14.5c15.9,0,27.9,14.5,47.8,14.5h69.7c0.4,0,0.8,0.4,0.8,0.8c0,0.4-0.3,0.8-0.8,0.8H542  c-20.3,0-32.4-14.5-47.8-14.5c-14.4,0-27.2,14.5-41.3,14.5h-20.4c-25.7,0-45.6-23.5-68.8-23.5c-29.2,0-57.7,23.5-95.6,23.5h-87  C180.8,187.9,180.5,187.6,180.5,187.1z" style="fill-rule: evenodd; clip-rule: evenodd; fill: #ff9900; fill-opacity: 0.75;"></path><linearGradient id="SVGID_22_" gradientUnits="userSpaceOnUse" x1="538.4" y1="181.26" x2="325.639" y2="181.26" style=""><stop offset="0" style="stop-color: #B521BA;"></stop><stop offset="0.5" style="stop-color: #00ABFF;"></stop><stop offset="1" style="stop-color: #290075;"></stop></linearGradient><path class="st21" d="M180.5,187.1c0-0.4,0.3-0.8,0.8-0.8h83.9c34.7,0,64.9-11.7,95.7-11.7c24.7,0,47.6,11.7,73.1,11.7H453  c13.3,0,27.1-7.3,42.5-7.3c16.1,0,30.9,7.3,50,7.3h66.2c0.4,0,0.8,0.4,0.8,0.8c0,0.4-0.3,0.8-0.8,0.8h-66.2c-19.3,0-34.1-7.3-50-7.3  c-15.2,0-28.9,7.3-42.5,7.3h-19.1c-25.8,0-48.6-11.7-73.1-11.7c-30.6,0-60.8,11.7-95.7,11.7h-83.9  C180.8,187.9,180.5,187.6,180.5,187.1z" style="fill-rule: evenodd; clip-rule: evenodd; fill: #ff9900; fill-opacity: 0.75;"></path><linearGradient id="SVGID_23_" gradientUnits="userSpaceOnUse" x1="538.4" y1="187.13" x2="325.639" y2="187.13" style=""><stop offset="0" style="stop-color: #B521BA;"></stop><stop offset="0.5" style="stop-color: #00ABFF;"></stop><stop offset="1" style="stop-color: #290075;"></stop></linearGradient><path class="st22" d="M180.5,187.1c0-0.4,0.3-0.8,0.8-0.8h430.5c0.4,0,0.8,0.4,0.8,0.8c0,0.4-0.3,0.8-0.8,0.8H181.3  C180.8,187.9,180.5,187.6,180.5,187.1z" style="fill-rule: evenodd; clip-rule: evenodd; fill: #ff9900; fill-opacity: 0.75;"></path></svg> <svg y="331.5224966430664" viewBox="0.3800000250339508 3.259999990463257 148.25999450683594 14.510000228881836" x="213.36998977661133" height="14.510000228881836" width="148.25999450683594" xmlns="http://www.w3.org/2000/svg" style="overflow: visible;"><g fill="#FFFFFF" fill-opacity="1" style=""><path d="M6.00 14.53L4.39 14.53L0.38 3.62L1.85 3.62L4.15 10.09Q4.35 10.65 4.65 11.58Q4.94 12.51 5.34 13.87L5.34 13.87L5.07 13.87Q5.46 12.47 5.76 11.56Q6.05 10.65 6.24 10.09L6.24 10.09L8.49 3.62L9.97 3.62L6.00 14.53ZM12.82 14.53L11.51 14.53L11.51 6.34L12.82 6.34L12.82 14.53ZM12.17 5.00L12.17 5.00Q11.80 5.00 11.53 4.75Q11.26 4.49 11.26 4.13L11.26 4.13Q11.26 3.76 11.53 3.51Q11.80 3.26 12.17 3.26L12.17 3.26Q12.55 3.26 12.82 3.51Q13.10 3.76 13.10 4.13L13.10 4.13Q13.10 4.49 12.82 4.75Q12.55 5.00 12.17 5.00ZM17.92 14.71L17.92 14.71Q17.08 14.71 16.42 14.46Q15.77 14.22 15.34 13.73Q14.92 13.25 14.77 12.55L14.77 12.55L16.03 12.25Q16.20 12.92 16.69 13.23Q17.18 13.55 17.91 13.55L17.91 13.55Q18.76 13.55 19.27 13.18Q19.78 12.82 19.78 12.31L19.78 12.31Q19.78 11.89 19.49 11.61Q19.19 11.32 18.58 11.18L18.58 11.18L17.22 10.86Q16.11 10.60 15.56 10.05Q15.02 9.49 15.02 8.63L15.02 8.63Q15.02 7.92 15.42 7.39Q15.81 6.85 16.50 6.54Q17.18 6.24 18.05 6.24L18.05 6.24Q18.90 6.24 19.49 6.49Q20.08 6.75 20.45 7.19Q20.82 7.63 21.00 8.21L21.00 8.21L19.80 8.52Q19.64 8.08 19.24 7.72Q18.85 7.36 18.06 7.36L18.06 7.36Q17.33 7.36 16.84 7.70Q16.35 8.03 16.35 8.55L16.35 8.55Q16.35 9.00 16.68 9.28Q17.01 9.55 17.73 9.72L17.73 9.72L18.97 10.01Q20.08 10.28 20.62 10.83Q21.15 11.38 21.15 12.22L21.15 12.22Q21.15 12.94 20.75 13.50Q20.34 14.06 19.61 14.38Q18.88 14.71 17.92 14.71ZM25.83 14.63L25.83 14.63Q25.00 14.63 24.38 14.29Q23.75 13.95 23.40 13.26Q23.06 12.58 23.06 11.54L23.06 11.54L23.06 6.34L24.38 6.34L24.38 11.43Q24.38 12.38 24.87 12.91Q25.37 13.45 26.23 13.45L26.23 13.45Q26.81 13.45 27.28 13.19Q27.74 12.93 28.02 12.44Q28.29 11.95 28.29 11.25L28.29 11.25L28.29 6.34L29.61 6.34L29.61 14.53L28.34 14.53L28.34 12.55L28.51 12.55Q28.13 13.70 27.43 14.17Q26.73 14.63 25.83 14.63ZM34.22 14.72L34.22 14.72Q33.44 14.72 32.81 14.43Q32.18 14.14 31.80 13.57Q31.43 13.01 31.43 12.20L31.43 12.20Q31.43 11.50 31.71 11.06Q31.98 10.62 32.45 10.37Q32.92 10.11 33.48 9.99Q34.04 9.87 34.61 9.79L34.61 9.79Q35.35 9.70 35.81 9.65Q36.27 9.59 36.49 9.47Q36.72 9.35 36.72 9.05L36.72 9.05L36.72 9.00Q36.72 8.49 36.53 8.13Q36.34 7.78 35.95 7.59Q35.57 7.40 35.00 7.40L35.00 7.40Q34.42 7.40 34.00 7.58Q33.58 7.76 33.32 8.04Q33.06 8.31 32.93 8.60L32.93 8.60L31.66 8.18Q31.98 7.43 32.51 7.01Q33.05 6.59 33.69 6.42Q34.34 6.24 34.97 6.24L34.97 6.24Q35.38 6.24 35.90 6.34Q36.42 6.44 36.91 6.73Q37.40 7.02 37.72 7.60Q38.03 8.17 38.03 9.13L38.03 9.13L38.03 14.53L36.74 14.53L36.74 13.42L36.65 13.42Q36.51 13.70 36.20 14.01Q35.90 14.31 35.41 14.52Q34.91 14.72 34.22 14.72ZM34.45 13.56L34.45 13.56Q35.18 13.56 35.68 13.27Q36.19 12.99 36.45 12.53Q36.72 12.07 36.72 11.57L36.72 11.57L36.72 10.44Q36.64 10.53 36.36 10.61Q36.09 10.69 35.75 10.74Q35.40 10.80 35.07 10.84Q34.75 10.88 34.56 10.91L34.56 10.91Q34.08 10.96 33.67 11.11Q33.25 11.25 33.00 11.52Q32.75 11.80 32.75 12.27L32.75 12.27Q32.75 12.69 32.97 12.98Q33.19 13.26 33.57 13.41Q33.96 13.56 34.45 13.56ZM40.35 3.62L41.67 3.62L41.67 14.53L40.35 14.53L40.35 3.62ZM45.30 14.53L43.98 14.53L43.98 6.34L45.30 6.34L45.30 14.53ZM44.65 5.00L44.65 5.00Q44.27 5.00 44.00 4.75Q43.73 4.49 43.73 4.13L43.73 4.13Q43.73 3.76 44.00 3.51Q44.27 3.26 44.65 3.26L44.65 3.26Q45.03 3.26 45.30 3.51Q45.57 3.76 45.57 4.13L45.57 4.13Q45.57 4.49 45.30 4.75Q45.03 5.00 44.65 5.00ZM50.40 14.71L50.40 14.71Q49.56 14.71 48.90 14.46Q48.24 14.22 47.82 13.73Q47.40 13.25 47.25 12.55L47.25 12.55L48.50 12.25Q48.68 12.92 49.16 13.23Q49.65 13.55 50.38 13.55L50.38 13.55Q51.24 13.55 51.75 13.18Q52.26 12.82 52.26 12.31L52.26 12.31Q52.26 11.89 51.96 11.61Q51.67 11.32 51.06 11.18L51.06 11.18L49.69 10.86Q48.58 10.60 48.04 10.05Q47.50 9.49 47.50 8.63L47.50 8.63Q47.50 7.92 47.89 7.39Q48.29 6.85 48.97 6.54Q49.66 6.24 50.53 6.24L50.53 6.24Q51.37 6.24 51.96 6.49Q52.55 6.75 52.92 7.19Q53.29 7.63 53.47 8.21L53.47 8.21L52.28 8.52Q52.11 8.08 51.72 7.72Q51.33 7.36 50.54 7.36L50.54 7.36Q49.80 7.36 49.32 7.70Q48.83 8.03 48.83 8.55L48.83 8.55Q48.83 9.00 49.16 9.28Q49.49 9.55 50.21 9.72L50.21 9.72L51.45 10.01Q52.56 10.28 53.09 10.83Q53.63 11.38 53.63 12.22L53.63 12.22Q53.63 12.94 53.22 13.50Q52.81 14.06 52.09 14.38Q51.36 14.71 50.40 14.71ZM56.85 14.53L55.53 14.53L55.53 6.34L56.85 6.34L56.85 14.53ZM56.20 5.00L56.20 5.00Q55.83 5.00 55.55 4.75Q55.28 4.49 55.28 4.13L55.28 4.13Q55.28 3.76 55.55 3.51Q55.83 3.26 56.20 3.26L56.20 3.26Q56.58 3.26 56.85 3.51Q57.12 3.76 57.12 4.13L57.12 4.13Q57.12 4.49 56.85 4.75Q56.58 5.00 56.20 5.00ZM60.48 9.62L60.48 9.62L60.48 14.53L59.17 14.53L59.17 6.34L60.43 6.34L60.44 8.33L60.26 8.33Q60.63 7.19 61.32 6.72Q62.01 6.24 62.94 6.24L62.94 6.24Q63.77 6.24 64.39 6.58Q65.02 6.92 65.36 7.61Q65.71 8.29 65.71 9.33L65.71 9.33L65.71 14.53L64.39 14.53L64.39 9.44Q64.39 8.50 63.90 7.96Q63.41 7.43 62.55 7.43L62.55 7.43Q61.96 7.43 61.49 7.68Q61.03 7.94 60.75 8.43Q60.48 8.92 60.48 9.62ZM71.35 17.77L71.35 17.77Q70.44 17.77 69.77 17.54Q69.11 17.31 68.67 16.93Q68.23 16.55 67.98 16.10L67.98 16.10L69.05 15.41Q69.22 15.64 69.48 15.93Q69.74 16.22 70.18 16.42Q70.63 16.62 71.35 16.62L71.35 16.62Q72.33 16.62 72.96 16.15Q73.59 15.68 73.59 14.67L73.59 14.67L73.59 13.03L73.47 13.03Q73.33 13.26 73.08 13.59Q72.82 13.91 72.35 14.15Q71.88 14.40 71.09 14.40L71.09 14.40Q70.11 14.40 69.32 13.93Q68.54 13.47 68.09 12.58Q67.63 11.68 67.63 10.40L67.63 10.40Q67.63 9.13 68.08 8.20Q68.53 7.27 69.31 6.75Q70.10 6.24 71.12 6.24L71.12 6.24Q71.91 6.24 72.38 6.50Q72.85 6.76 73.11 7.10Q73.37 7.43 73.51 7.65L73.51 7.65L73.63 7.65L73.63 6.34L74.91 6.34L74.91 14.74Q74.91 15.80 74.44 16.47Q73.96 17.14 73.15 17.45Q72.34 17.77 71.35 17.77ZM71.31 13.23L71.31 13.23Q72.06 13.23 72.57 12.89Q73.08 12.55 73.34 11.91Q73.61 11.26 73.61 10.37L73.61 10.37Q73.61 9.50 73.35 8.84Q73.09 8.17 72.58 7.80Q72.06 7.42 71.31 7.42L71.31 7.42Q70.53 7.42 70.01 7.82Q69.49 8.22 69.23 8.88Q68.97 9.55 68.97 10.37L68.97 10.37Q68.97 11.21 69.24 11.86Q69.50 12.50 70.02 12.86Q70.54 13.23 71.31 13.23ZM85.01 14.53L85.01 14.53L82.38 14.53L82.38 13.30L84.92 13.30Q86.26 13.30 87.13 12.79Q88.01 12.28 88.44 11.33Q88.87 10.38 88.87 9.05L88.87 9.05Q88.87 7.74 88.44 6.80Q88.02 5.86 87.17 5.35Q86.32 4.85 85.06 4.85L85.06 4.85L82.32 4.85L82.32 3.62L85.15 3.62Q86.75 3.62 87.88 4.27Q89.01 4.92 89.62 6.14Q90.22 7.36 90.22 9.05L90.22 9.05Q90.22 10.76 89.61 11.99Q89.00 13.21 87.84 13.87Q86.67 14.53 85.01 14.53ZM81.61 3.62L83.00 3.62L83.00 14.53L81.61 14.53L81.61 3.62ZM95.71 14.71L95.71 14.71Q94.53 14.71 93.67 14.18Q92.81 13.65 92.34 12.71Q91.88 11.76 91.88 10.50L91.88 10.50Q91.88 9.24 92.33 8.28Q92.78 7.32 93.61 6.78Q94.45 6.24 95.56 6.24L95.56 6.24Q96.21 6.24 96.84 6.46Q97.48 6.67 97.99 7.15Q98.51 7.63 98.82 8.42Q99.13 9.20 99.13 10.33L99.13 10.33L99.13 10.88L92.77 10.88L92.77 9.77L98.42 9.77L97.80 10.18Q97.80 9.38 97.55 8.75Q97.29 8.12 96.80 7.77Q96.30 7.41 95.56 7.41L95.56 7.41Q94.82 7.41 94.29 7.77Q93.76 8.14 93.49 8.72Q93.21 9.30 93.21 9.97L93.21 9.97L93.21 10.71Q93.21 11.62 93.52 12.25Q93.84 12.88 94.41 13.21Q94.97 13.54 95.72 13.54L95.72 13.54Q96.20 13.54 96.60 13.40Q96.99 13.26 97.28 12.97Q97.57 12.69 97.72 12.28L97.72 12.28L98.99 12.63Q98.80 13.24 98.35 13.71Q97.90 14.18 97.23 14.44Q96.56 14.71 95.71 14.71ZM104.35 14.71L104.35 14.71Q103.23 14.71 102.40 14.18Q101.56 13.65 101.09 12.70Q100.62 11.75 100.62 10.49L100.62 10.49Q100.62 9.21 101.09 8.25Q101.56 7.29 102.40 6.77Q103.23 6.24 104.35 6.24L104.35 6.24Q104.94 6.24 105.47 6.39Q106.00 6.55 106.43 6.84Q106.87 7.13 107.18 7.55Q107.50 7.97 107.67 8.50L107.67 8.50L106.40 8.86Q106.31 8.55 106.13 8.28Q105.94 8.02 105.68 7.83Q105.42 7.63 105.09 7.53Q104.75 7.42 104.35 7.42L104.35 7.42Q103.53 7.42 103.00 7.85Q102.47 8.28 102.22 8.97Q101.96 9.67 101.96 10.49L101.96 10.49Q101.96 11.29 102.22 11.99Q102.47 12.68 103.00 13.10Q103.53 13.53 104.35 13.53L104.35 13.53Q104.76 13.53 105.10 13.42Q105.45 13.31 105.71 13.11Q105.98 12.91 106.16 12.63Q106.35 12.35 106.44 12.02L106.44 12.02L107.70 12.38Q107.53 12.93 107.22 13.36Q106.90 13.78 106.46 14.09Q106.02 14.39 105.48 14.55Q104.95 14.71 104.35 14.71ZM110.90 14.53L109.58 14.53L109.58 6.34L110.90 6.34L110.90 14.53ZM110.25 5.00L110.25 5.00Q109.88 5.00 109.61 4.75Q109.34 4.49 109.34 4.13L109.34 4.13Q109.34 3.76 109.61 3.51Q109.88 3.26 110.25 3.26L110.25 3.26Q110.63 3.26 110.90 3.51Q111.17 3.76 111.17 4.13L111.17 4.13Q111.17 4.49 110.90 4.75Q110.63 5.00 110.25 5.00ZM116.00 14.71L116.00 14.71Q115.16 14.71 114.50 14.46Q113.85 14.22 113.42 13.73Q113.00 13.25 112.85 12.55L112.85 12.55L114.10 12.25Q114.28 12.92 114.77 13.23Q115.25 13.55 115.99 13.55L115.99 13.55Q116.84 13.55 117.35 13.18Q117.86 12.82 117.86 12.31L117.86 12.31Q117.86 11.89 117.56 11.61Q117.27 11.32 116.66 11.18L116.66 11.18L115.30 10.86Q114.18 10.60 113.64 10.05Q113.10 9.49 113.10 8.63L113.10 8.63Q113.10 7.92 113.50 7.39Q113.89 6.85 114.58 6.54Q115.26 6.24 116.13 6.24L116.13 6.24Q116.98 6.24 117.56 6.49Q118.15 6.75 118.52 7.19Q118.89 7.63 119.08 8.21L119.08 8.21L117.88 8.52Q117.71 8.08 117.32 7.72Q116.93 7.36 116.14 7.36L116.14 7.36Q115.41 7.36 114.92 7.70Q114.43 8.03 114.43 8.55L114.43 8.55Q114.43 9.00 114.76 9.28Q115.09 9.55 115.81 9.72L115.81 9.72L117.05 10.01Q118.16 10.28 118.70 10.83Q119.23 11.38 119.23 12.22L119.23 12.22Q119.23 12.94 118.82 13.50Q118.42 14.06 117.69 14.38Q116.96 14.71 116.00 14.71ZM122.45 14.53L121.14 14.53L121.14 6.34L122.45 6.34L122.45 14.53ZM121.80 5.00L121.80 5.00Q121.43 5.00 121.16 4.75Q120.89 4.49 120.89 4.13L120.89 4.13Q120.89 3.76 121.16 3.51Q121.43 3.26 121.80 3.26L121.80 3.26Q122.18 3.26 122.45 3.51Q122.72 3.76 122.72 4.13L122.72 4.13Q122.72 4.49 122.45 4.75Q122.18 5.00 121.80 5.00ZM128.10 14.71L128.10 14.71Q126.99 14.71 126.15 14.18Q125.31 13.65 124.84 12.70Q124.37 11.75 124.37 10.49L124.37 10.49Q124.37 9.21 124.84 8.25Q125.31 7.29 126.15 6.77Q126.99 6.24 128.10 6.24L128.10 6.24Q129.22 6.24 130.06 6.77Q130.91 7.29 131.37 8.25Q131.84 9.21 131.84 10.49L131.84 10.49Q131.84 11.75 131.37 12.70Q130.91 13.65 130.06 14.18Q129.22 14.71 128.10 14.71ZM128.10 13.53L128.10 13.53Q128.93 13.53 129.46 13.10Q130.00 12.68 130.25 11.99Q130.51 11.29 130.51 10.49L130.51 10.49Q130.51 9.68 130.25 8.98Q130.00 8.28 129.46 7.85Q128.93 7.42 128.10 7.42L128.10 7.42Q127.28 7.42 126.75 7.85Q126.23 8.28 125.97 8.97Q125.71 9.67 125.71 10.49L125.71 10.49Q125.71 11.29 125.97 11.99Q126.23 12.68 126.75 13.10Q127.28 13.53 128.10 13.53ZM135.08 9.62L135.08 9.62L135.08 14.53L133.76 14.53L133.76 6.34L135.03 6.34L135.04 8.33L134.85 8.33Q135.23 7.19 135.92 6.72Q136.61 6.24 137.54 6.24L137.54 6.24Q138.37 6.24 138.99 6.58Q139.61 6.92 139.96 7.61Q140.31 8.29 140.31 9.33L140.31 9.33L140.31 14.53L138.99 14.53L138.99 9.44Q138.99 8.50 138.50 7.96Q138.00 7.43 137.15 7.43L137.15 7.43Q136.56 7.43 136.09 7.68Q135.62 7.94 135.35 8.43Q135.08 8.92 135.08 9.62ZM145.41 14.71L145.41 14.71Q144.57 14.71 143.91 14.46Q143.25 14.22 142.83 13.73Q142.40 13.25 142.26 12.55L142.26 12.55L143.51 12.25Q143.69 12.92 144.17 13.23Q144.66 13.55 145.39 13.55L145.39 13.55Q146.25 13.55 146.76 13.18Q147.27 12.82 147.27 12.31L147.27 12.31Q147.27 11.89 146.97 11.61Q146.67 11.32 146.07 11.18L146.07 11.18L144.70 10.86Q143.59 10.60 143.05 10.05Q142.51 9.49 142.51 8.63L142.51 8.63Q142.51 7.92 142.90 7.39Q143.30 6.85 143.98 6.54Q144.67 6.24 145.54 6.24L145.54 6.24Q146.38 6.24 146.97 6.49Q147.56 6.75 147.93 7.19Q148.30 7.63 148.48 8.21L148.48 8.21L147.29 8.52Q147.12 8.08 146.73 7.72Q146.34 7.36 145.55 7.36L145.55 7.36Q144.81 7.36 144.33 7.70Q143.84 8.03 143.84 8.55L143.84 8.55Q143.84 9.00 144.17 9.28Q144.50 9.55 145.22 9.72L145.22 9.72L146.46 10.01Q147.57 10.28 148.10 10.83Q148.64 11.38 148.64 12.22L148.64 12.22Q148.64 12.94 148.23 13.50Q147.82 14.06 147.10 14.38Q146.37 14.71 145.41 14.71Z" transform="translate(0, 0)"></path></g></svg> <svg y="301.5824966430664" viewBox="1.3799999952316284 9.25 222.9099884033203 32.9900016784668" x="176.04499359130858" height="32.9900016784668" width="222.9099884033203" xmlns="http://www.w3.org/2000/svg" style="overflow: visible;"><g fill="#FFFFFF" fill-opacity="1" style=""><path d="M12.58 33.82Q9.47 33.82 6.91 32.37Q4.35 30.91 2.86 28.30Q1.38 25.70 1.38 22.43L1.38 22.43Q1.38 19.17 2.86 16.56Q4.35 13.95 6.91 12.50Q9.47 11.04 12.58 11.04L12.58 11.04Q15.71 11.04 18.27 12.50Q20.83 13.95 22.30 16.54Q23.78 19.14 23.78 22.43L23.78 22.43Q23.78 25.73 22.30 28.32Q20.83 30.91 18.27 32.37Q15.71 33.82 12.58 33.82L12.58 33.82ZM12.58 31.30Q14.91 31.30 16.78 30.21Q18.66 29.12 19.73 27.10Q20.80 25.09 20.80 22.43L20.80 22.43Q20.80 19.74 19.73 17.74Q18.66 15.74 16.80 14.66Q14.94 13.57 12.58 13.57L12.58 13.57Q10.21 13.57 8.35 14.66Q6.50 15.74 5.42 17.74Q4.35 19.74 4.35 22.43L4.35 22.43Q4.35 25.09 5.42 27.10Q6.50 29.12 8.37 30.21Q10.24 31.30 12.58 31.30L12.58 31.30ZM36.16 15.74Q39.36 15.74 41.34 17.68Q43.33 19.62 43.33 23.26L43.33 23.26L43.33 33.60L40.45 33.60L40.45 23.68Q40.45 21.06 39.14 19.66Q37.82 18.27 35.55 18.27L35.55 18.27Q33.25 18.27 31.89 19.71Q30.53 21.15 30.53 23.90L30.53 23.90L30.53 33.60L27.62 33.60L27.62 16.06L30.53 16.06L30.53 18.56Q31.39 17.22 32.88 16.48Q34.37 15.74 36.16 15.74L36.16 15.74ZM60.19 16.06L63.20 16.06L52.64 41.86L49.63 41.86L53.09 33.41L46.02 16.06L49.25 16.06L54.75 30.27L60.19 16.06ZM78.56 33.60L75.26 33.60L71.10 27.07L67.10 33.60L64.06 33.60L69.73 24.90L64.06 16.06L67.36 16.06L71.52 22.56L75.49 16.06L78.53 16.06L72.90 24.74L78.56 33.60ZM105.22 33.60L101.73 33.60L96.42 24.48L92.90 24.48L92.90 33.60L89.98 33.60L89.98 11.30L97.18 11.30Q99.71 11.30 101.46 12.16Q103.20 13.02 104.06 14.50Q104.93 15.97 104.93 17.86L104.93 17.86Q104.93 20.16 103.60 21.92Q102.27 23.68 99.62 24.26L99.62 24.26L105.22 33.60ZM92.90 13.70L92.90 22.14L97.18 22.14Q99.55 22.14 100.74 20.98Q101.92 19.81 101.92 17.86L101.92 17.86Q101.92 15.87 100.75 14.78Q99.58 13.70 97.18 13.70L97.18 13.70L92.90 13.70ZM125.44 24.16Q125.44 24.99 125.34 25.92L125.34 25.92L111.33 25.92Q111.49 28.51 113.10 29.97Q114.72 31.42 117.02 31.42L117.02 31.42Q118.91 31.42 120.18 30.54Q121.44 29.66 121.95 28.19L121.95 28.19L125.09 28.19Q124.38 30.72 122.27 32.30Q120.16 33.89 117.02 33.89L117.02 33.89Q114.53 33.89 112.56 32.77Q110.59 31.65 109.47 29.58Q108.35 27.52 108.35 24.80L108.35 24.80Q108.35 22.08 109.44 20.03Q110.53 17.98 112.50 16.88Q114.46 15.78 117.02 15.78L117.02 15.78Q119.52 15.78 121.44 16.86Q123.36 17.95 124.40 19.86Q125.44 21.76 125.44 24.16L125.44 24.16ZM122.43 23.55Q122.43 21.89 121.70 20.69Q120.96 19.49 119.70 18.86Q118.43 18.24 116.90 18.24L116.90 18.24Q114.69 18.24 113.14 19.65Q111.58 21.06 111.36 23.55L111.36 23.55L122.43 23.55ZM136.51 15.78Q138.78 15.78 140.50 16.77Q142.21 17.76 143.04 19.26L143.04 19.26L143.04 16.06L145.98 16.06L145.98 33.98Q145.98 36.38 144.96 38.26Q143.94 40.13 142.03 41.18Q140.13 42.24 137.60 42.24L137.60 42.24Q134.14 42.24 131.84 40.61Q129.54 38.98 129.12 36.16L129.12 36.16L132.00 36.16Q132.48 37.76 133.98 38.74Q135.49 39.71 137.60 39.71L137.60 39.71Q140.00 39.71 141.52 38.21Q143.04 36.70 143.04 33.98L143.04 33.98L143.04 30.30Q142.18 31.84 140.48 32.86Q138.78 33.89 136.51 33.89L136.51 33.89Q134.18 33.89 132.27 32.74Q130.37 31.58 129.28 29.50Q128.19 27.42 128.19 24.77L128.19 24.77Q128.19 22.08 129.28 20.05Q130.37 18.02 132.27 16.90Q134.18 15.78 136.51 15.78L136.51 15.78ZM143.04 24.80Q143.04 22.82 142.24 21.34Q141.44 19.87 140.08 19.09Q138.72 18.30 137.09 18.30L137.09 18.30Q135.46 18.30 134.11 19.07Q132.77 19.84 131.97 21.31Q131.17 22.78 131.17 24.77L131.17 24.77Q131.17 26.78 131.97 28.27Q132.77 29.76 134.11 30.54Q135.46 31.33 137.09 31.33L137.09 31.33Q138.72 31.33 140.08 30.54Q141.44 29.76 142.24 28.27Q143.04 26.78 143.04 24.80L143.04 24.80ZM152.42 13.22Q151.58 13.22 151.01 12.64Q150.43 12.06 150.43 11.23L150.43 11.23Q150.43 10.40 151.01 9.82Q151.58 9.25 152.42 9.25L152.42 9.25Q153.22 9.25 153.78 9.82Q154.34 10.40 154.34 11.23L154.34 11.23Q154.34 12.06 153.78 12.64Q153.22 13.22 152.42 13.22L152.42 13.22ZM150.91 16.06L153.82 16.06L153.82 33.60L150.91 33.60L150.91 16.06ZM166.43 33.89Q163.97 33.89 161.97 32.77Q159.97 31.65 158.83 29.58Q157.70 27.52 157.70 24.80L157.70 24.80Q157.70 22.11 158.86 20.05Q160.03 17.98 162.05 16.88Q164.06 15.78 166.56 15.78L166.56 15.78Q169.06 15.78 171.07 16.88Q173.09 17.98 174.26 20.03Q175.42 22.08 175.42 24.80L175.42 24.80Q175.42 27.52 174.22 29.58Q173.02 31.65 170.98 32.77Q168.93 33.89 166.43 33.89L166.43 33.89ZM166.43 31.33Q168 31.33 169.38 30.59Q170.75 29.86 171.60 28.38Q172.45 26.91 172.45 24.80L172.45 24.80Q172.45 22.69 171.62 21.22Q170.78 19.74 169.44 19.02Q168.10 18.30 166.53 18.30L166.53 18.30Q164.93 18.30 163.60 19.02Q162.27 19.74 161.47 21.22Q160.67 22.69 160.67 24.80L160.67 24.80Q160.67 26.94 161.46 28.42Q162.24 29.89 163.55 30.61Q164.86 31.33 166.43 31.33L166.43 31.33ZM187.81 15.74Q191.01 15.74 192.99 17.68Q194.98 19.62 194.98 23.26L194.98 23.26L194.98 33.60L192.10 33.60L192.10 23.68Q192.10 21.06 190.78 19.66Q189.47 18.27 187.20 18.27L187.20 18.27Q184.90 18.27 183.54 19.71Q182.18 21.15 182.18 23.90L182.18 23.90L182.18 33.60L179.26 33.60L179.26 16.06L182.18 16.06L182.18 18.56Q183.04 17.22 184.53 16.48Q186.02 15.74 187.81 15.74L187.81 15.74ZM198.66 24.77Q198.66 22.08 199.74 20.05Q200.83 18.02 202.74 16.90Q204.64 15.78 206.98 15.78L206.98 15.78Q209.28 15.78 210.98 16.77Q212.67 17.76 213.50 19.26L213.50 19.26L213.50 16.06L216.45 16.06L216.45 33.60L213.50 33.60L213.50 30.34Q212.64 31.87 210.93 32.88Q209.22 33.89 206.94 33.89L206.94 33.89Q204.61 33.89 202.72 32.74Q200.83 31.58 199.74 29.50Q198.66 27.42 198.66 24.77L198.66 24.77ZM213.50 24.80Q213.50 22.82 212.70 21.34Q211.90 19.87 210.54 19.09Q209.18 18.30 207.55 18.30L207.55 18.30Q205.92 18.30 204.58 19.07Q203.23 19.84 202.43 21.31Q201.63 22.78 201.63 24.77L201.63 24.77Q201.63 26.78 202.43 28.27Q203.23 29.76 204.58 30.54Q205.92 31.33 207.55 31.33L207.55 31.33Q209.18 31.33 210.54 30.54Q211.90 29.76 212.70 28.27Q213.50 26.78 213.50 24.80L213.50 24.80ZM221.38 9.92L224.29 9.92L224.29 33.60L221.38 33.60L221.38 9.92Z" transform="translate(0, 0)"></path></g></svg></svg>